 <svg  version="1.0" xmlns="http://www.w3.org/2000/svg"  width="1350.000000pt" height="1350.000000pt" viewBox="0 0 1350.000000 1350.000000"  preserveAspectRatio="xMidYMid meet">  <g transform="translate(0.000000,1350.000000) scale(0.100000,-0.100000)" fill="#000000" stroke="none"> <path d="M1980 8780 c-10 -6 -17 -34 -21 -92 -3 -46 -11 -128 -17 -183 -6 -55 -18 -183 -27 -285 -8 -102 -20 -224 -26 -273 -6 -48 -14 -152 -19 -231 -4 -79 -11 -149 -14 -155 -4 -5 -11 -75 -17 -153 -5 -79 -13 -172 -18 -208 -14 -98 -6 -106 116 -115 120 -8 194 0 211 22 6 9 12 46 12 82 0 36 5 84 10 106 5 22 12 83 15 135 7 116 25 280 32 300 6 14 23 -58 43 -183 6 -32 14 -67 20 -77 5 -10 10 -33 10 -51 0 -59 60 -306 77 -321 17 -14 194 -23 269 -13 46 5 55 10 68 37 9 16 18 46 21 67 4 20 13 65 20 101 8 36 22 101 31 145 9 44 23 107 30 141 8 33 14 73 14 90 0 16 4 35 9 43 15 24 23 -6 32 -122 4 -60 13 -149 18 -196 6 -47 14 -125 17 -174 9 -130 9 -131 176 -131 100 -1 139 3 151 13 22 17 22 95 3 251 -8 63 -20 176 -26 250 -6 74 -18 205 -26 290 -8 85 -19 214 -24 285 -5 72 -13 137 -16 145 -3 8 -10 77 -14 152 -9 150 -28 286 -43 306 -7 9 -56 12 -183 12 l-174 0 -15 -37 c-8 -20 -18 -54 -21 -77 -3 -23 -11 -68 -19 -101 -8 -33 -21 -96 -30 -140 -9 -44 -23 -114 -32 -155 -8 -41 -21 -102 -29 -136 -8 -33 -14 -72 -14 -85 0 -14 -8 -48 -17 -75 l-17 -49 -12 65 c-7 36 -20 99 -29 140 -9 41 -19 100 -24 131 -5 30 -13 65 -20 77 -6 11 -11 37 -11 57 0 34 -7 71 -46 227 -8 32 -14 70 -14 86 0 15 -7 38 -16 50 -15 21 -21 22 -187 22 -95 0 -179 -5 -187 -10z"/> <path d="M3347 8783 c-4 -3 -7 -383 -7 -844 0 -788 1 -839 18 -848 10 -5 175 -8 390 -7 319 1 374 3 382 16 16 24 13 285 -3 299 -9 7 -92 12 -236 13 l-222 3 0 210 0 210 177 3 c110 1 183 7 191 13 19 16 19 292 0 308 -8 6 -80 12 -188 13 l-174 3 -3 147 -3 148 233 2 233 3 0 155 0 155 -391 3 c-215 1 -393 -1 -397 -5z"/> <path d="M4385 8756 c-8 -18 -19 -96 -24 -172 -12 -166 -27 -323 -46 -499 -8 -72 -15 -160 -15 -195 0 -36 -4 -81 -10 -100 -5 -19 -14 -102 -20 -185 -6 -82 -14 -179 -20 -215 -15 -108 -17 -277 -3 -291 15 -15 213 -23 269 -11 51 10 61 40 69 203 3 68 11 152 16 185 6 34 14 113 17 175 l7 114 18 -80 c10 -44 23 -98 28 -120 6 -22 14 -68 19 -102 5 -35 14 -72 20 -82 5 -11 10 -36 10 -55 0 -19 6 -55 14 -78 8 -24 16 -63 19 -87 9 -72 17 -75 179 -76 79 -1 153 3 165 8 15 7 24 22 28 46 3 20 12 58 20 85 8 26 15 59 15 72 0 14 6 50 14 82 28 114 38 158 47 212 5 30 15 87 22 125 l13 70 12 -120 c7 -66 17 -176 22 -245 5 -69 16 -168 23 -220 16 -119 16 -119 184 -116 111 1 125 3 145 23 21 21 21 25 10 105 -11 80 -21 190 -42 458 -6 69 -15 149 -20 179 -6 30 -10 84 -10 120 0 36 -7 107 -15 156 -8 50 -15 122 -15 160 0 39 -5 99 -11 135 -5 36 -14 125 -18 197 -11 182 1 173 -210 173 -91 0 -172 -4 -180 -9 -8 -5 -18 -31 -22 -58 -4 -26 -12 -68 -18 -93 -14 -55 -34 -148 -55 -255 -9 -44 -23 -108 -31 -142 -8 -34 -15 -74 -15 -90 0 -15 -7 -46 -15 -68 -8 -22 -14 -59 -15 -82 0 -24 -4 -43 -9 -43 -4 0 -13 19 -19 43 -22 88 -34 144 -43 200 -5 32 -13 67 -19 77 -5 10 -10 34 -10 53 0 19 -6 57 -14 83 -8 27 -22 92 -31 144 -20 115 -45 211 -58 228 -7 9 -56 12 -184 12 l-174 0 -14 -34z"/> <path d="M5752 8778 c-9 -9 -12 -209 -12 -839 0 -757 1 -828 17 -840 13 -11 89 -14 387 -16 221 -1 377 2 388 8 16 9 18 25 18 153 0 107 -3 146 -13 155 -9 7 -91 12 -231 13 l-218 3 1 210 0 210 180 5 c99 3 183 8 186 12 4 4 9 69 11 145 2 115 0 141 -13 155 -14 16 -37 18 -190 18 l-173 0 0 140 c0 77 -1 143 -2 148 -2 4 101 9 227 12 l230 5 3 149 c2 113 -1 151 -10 158 -22 13 -772 10 -786 -4z"/> <path d="M6652 8778 c-9 -9 -12 -211 -12 -845 0 -785 1 -834 18 -841 9 -3 78 -7 153 -7 101 0 140 4 152 14 15 12 17 43 17 270 0 141 4 262 9 270 8 12 15 12 33 4 22 -10 34 -34 85 -168 8 -22 21 -53 28 -70 7 -16 21 -52 30 -80 10 -27 23 -63 30 -80 7 -16 23 -56 36 -89 14 -35 32 -61 44 -66 11 -4 82 -7 158 -6 123 1 140 3 152 20 15 20 11 68 -10 101 -7 11 -16 35 -19 53 -4 17 -12 34 -17 37 -5 4 -9 13 -9 22 0 8 -6 29 -14 46 -7 18 -21 52 -31 77 -18 47 -31 80 -59 143 -9 21 -16 43 -16 50 0 7 -7 25 -15 40 -8 15 -17 43 -21 62 -5 29 -1 40 30 78 96 117 128 237 122 453 -4 133 -11 165 -64 271 -40 82 -118 166 -184 200 -107 54 -101 53 -365 53 -180 0 -252 -3 -261 -12z m459 -330 c57 -42 69 -82 69 -226 0 -145 -8 -173 -65 -217 -29 -21 -44 -26 -83 -23 l-47 3 -3 230 c-1 126 0 235 2 242 9 22 93 16 127 -9z"/> <path d="M7944 8775 c-10 -8 -24 -15 -31 -15 -26 0 -106 -64 -142 -113 -67 -90 -82 -135 -79 -235 l3 -87 150 -2 c83 -2 156 1 163 6 7 4 17 34 21 65 4 32 14 62 22 67 8 5 49 9 91 9 109 0 108 3 108 -231 0 -165 -2 -188 -17 -201 -13 -11 -51 -17 -144 -21 -121 -5 -128 -6 -193 -41 -82 -45 -137 -101 -176 -184 l-30 -62 0 -303 c0 -246 3 -307 14 -323 14 -18 30 -19 441 -19 367 0 427 2 435 15 15 23 13 283 -2 298 -9 9 -85 12 -280 12 l-268 0 0 129 c0 91 4 132 13 139 6 6 71 12 142 14 119 3 135 5 185 31 58 30 150 112 150 134 0 7 4 13 8 13 5 0 19 24 33 53 24 51 24 57 24 317 l0 265 -32 65 c-32 65 -115 160 -140 160 -7 0 -13 4 -13 8 0 5 -24 18 -53 30 -47 20 -70 22 -218 22 -130 0 -169 -3 -185 -15z"/> <path d="M8905 8760 c-69 -34 -135 -85 -135 -105 0 -7 -6 -15 -12 -18 -7 -3 -20 -20 -29 -38 -9 -19 -22 -47 -30 -63 -11 -24 -14 -134 -14 -605 0 -536 1 -578 18 -611 49 -94 80 -134 133 -170 25 -16 49 -30 55 -30 5 0 21 -7 34 -16 37 -24 372 -25 409 -1 14 9 30 17 37 17 14 0 84 53 121 92 15 15 40 52 55 81 l28 52 0 590 0 590 -24 45 c-36 67 -86 125 -137 159 -25 17 -49 31 -53 31 -5 0 -22 7 -37 15 -22 11 -67 15 -194 15 -163 0 -166 -1 -225 -30z m304 -297 c0 -5 -15 -36 -32 -69 -18 -34 -57 -112 -87 -172 -30 -61 -58 -111 -62 -111 -12 -1 -9 318 2 340 9 16 22 19 95 19 47 0 85 -3 84 -7z m25 -1034 c-14 -16 -32 -19 -101 -19 -45 0 -83 3 -83 6 0 3 19 40 42 82 49 92 55 102 62 122 3 8 10 22 15 30 5 8 12 22 16 30 3 8 11 24 18 35 7 11 19 31 27 45 14 23 15 10 18 -144 2 -147 0 -171 -14 -187z"/> <path d="M9926 8775 c-15 -8 -32 -15 -37 -15 -39 0 -189 -155 -189 -196 0 -8 -7 -25 -15 -38 -14 -20 -15 -97 -13 -597 l3 -574 32 -66 c38 -77 101 -139 183 -177 52 -24 64 -26 230 -26 151 -1 180 1 203 17 14 9 31 17 37 17 18 0 100 67 127 102 14 18 37 58 51 88 l27 55 0 570 c0 546 -1 573 -20 615 -42 96 -109 165 -203 210 -61 30 -65 30 -225 30 -124 0 -169 -4 -191 -15z m266 -311 c3 -3 -23 -60 -58 -127 -36 -67 -76 -146 -90 -175 -14 -29 -30 -50 -34 -47 -12 7 -11 265 0 306 5 18 15 36 22 41 15 9 152 11 160 2z m47 -841 c2 -215 3 -213 -114 -213 -56 0 -85 4 -85 11 0 6 16 37 35 69 19 32 35 64 35 72 0 8 5 19 11 25 11 11 31 48 89 161 12 23 23 42 25 42 2 0 4 -75 4 -167z"/> <path d="M10914 8775 c-10 -8 -24 -15 -31 -15 -42 -1 -193 -152 -193 -192 0 -8 -6 -20 -12 -26 -10 -10 -14 -145 -16 -590 -3 -636 -5 -612 60 -708 35 -53 104 -113 138 -121 14 -3 36 -13 49 -22 19 -12 56 -15 202 -13 l178 2 60 31 c113 59 184 153 201 267 7 45 10 254 8 598 -3 599 3 553 -89 669 -45 57 -75 78 -171 119 -51 22 -355 23 -384 1z m266 -317 c0 -7 -27 -65 -60 -128 -33 -63 -69 -136 -81 -162 -12 -27 -25 -48 -30 -48 -13 0 -11 307 1 331 9 16 22 19 90 19 57 0 80 -4 80 -12z m40 -854 c0 -88 -4 -164 -10 -175 -9 -16 -22 -19 -95 -19 -48 0 -85 4 -85 10 0 5 18 42 40 82 22 40 61 115 86 166 25 50 50 92 55 92 5 0 9 -70 9 -156z"/> <path d="M1380 7020 c0 -13 60 -13 80 0 11 7 2 10 -32 10 -27 0 -48 -4 -48 -10z"/> <path d="M3423 7023 c9 -2 25 -2 35 0 9 3 1 5 -18 5 -19 0 -27 -2 -17 -5z"/> <path d="M5398 7023 c12 -2 30 -2 40 0 9 3 -1 5 -23 4 -22 0 -30 -2 -17 -4z"/> <path d="M8433 7023 c9 -2 25 -2 35 0 9 3 1 5 -18 5 -19 0 -27 -2 -17 -5z"/> <path d="M10168 7023 c12 -2 32 -2 45 0 12 2 2 4 -23 4 -25 0 -35 -2 -22 -4z"/> <path d="M11128 7023 c12 -2 30 -2 40 0 9 3 -1 5 -23 4 -22 0 -30 -2 -17 -4z"/> <path d="M11638 7023 c12 -2 32 -2 45 0 12 2 2 4 -23 4 -25 0 -35 -2 -22 -4z"/> <path d="M12030 7020 c20 -13 70 -13 70 0 0 6 -19 10 -42 10 -32 0 -39 -3 -28 -10z"/> <path d="M1354 6984 c-50 -14 -69 -47 -53 -94 7 -18 9 -56 6 -86 -5 -52 -5 -54 21 -61 35 -10 10789 -10 10824 0 26 7 26 9 21 61 -3 30 -1 68 6 86 15 44 -3 81 -45 92 -51 13 -10734 15 -10780 2z"/> <path d="M6261 6526 c-8 -9 -11 -72 -9 -202 l3 -189 145 -5 145 -5 5 -145 5 -145 189 -3 c130 -2 193 1 202 9 11 9 14 44 14 150 l0 139 129 0 c71 0 136 3 145 6 14 5 16 32 16 195 0 176 -1 189 -19 199 -13 6 -185 10 -489 10 -387 0 -472 -2 -481 -14z m287 -192 l3 -91 -58 -6 c-32 -2 -74 -4 -93 -2 l-35 2 -3 83 c-2 46 0 90 2 97 4 11 26 13 93 11 l88 -3 3 -91z m300 0 l-3 -97 -90 -2 c-49 -1 -92 2 -95 6 -3 4 -4 48 -2 98 l3 91 95 0 95 0 -3 -96z m300 -1 l-3 -98 -92 -3 -93 -3 0 100 0 101 95 0 96 0 -3 -97z m-298 -298 l0 -95 -93 0 c-52 0 -96 2 -98 4 -2 2 -3 45 -1 95 l3 91 95 0 94 0 0 -95z"/> <path d="M1732 6478 c-7 -7 -12 -29 -12 -49 0 -21 -4 -40 -9 -43 -5 -4 -26 -58 -46 -121 l-36 -115 -169 0 c-93 0 -175 -3 -184 -6 -26 -10 -19 -27 22 -54 20 -14 39 -27 42 -30 3 -3 23 -18 46 -33 22 -15 49 -35 60 -45 10 -9 36 -28 57 -42 37 -24 38 -27 33 -70 -4 -24 -11 -49 -16 -54 -6 -6 -10 -20 -10 -32 0 -13 -4 -25 -9 -28 -5 -4 -12 -25 -16 -48 -4 -24 -14 -52 -22 -65 -21 -32 -13 -77 15 -81 12 -2 22 1 22 6 0 6 15 19 34 30 19 11 43 28 53 37 26 23 156 115 164 115 3 0 34 -19 69 -42 35 -24 72 -48 83 -55 11 -6 22 -15 26 -20 13 -19 96 -73 112 -73 24 0 29 22 13 51 -7 13 -13 35 -14 47 0 13 -6 36 -14 50 -17 34 -43 116 -52 165 -7 42 -9 41 86 103 30 20 60 42 65 49 6 6 35 29 65 50 30 21 57 39 59 41 2 2 -2 10 -9 19 -10 12 -43 15 -185 15 -198 0 -177 -12 -215 125 -13 44 -26 85 -30 90 -4 6 -10 25 -13 43 -9 44 -48 87 -65 70z"/> <path d="M3482 6446 c-12 -24 -22 -50 -22 -59 0 -9 -6 -31 -14 -49 -8 -18 -22 -60 -31 -93 -28 -98 -11 -90 -208 -93 -228 -3 -230 -6 -100 -101 54 -39 111 -81 126 -94 16 -12 38 -29 50 -38 17 -14 19 -21 10 -45 -6 -16 -18 -56 -28 -89 -10 -33 -24 -75 -31 -93 -8 -18 -14 -42 -14 -52 0 -11 -5 -29 -12 -39 -15 -25 -4 -53 19 -44 10 4 51 32 93 63 41 30 101 73 133 95 l57 39 48 -34 c26 -18 70 -49 97 -68 28 -19 66 -48 86 -63 52 -41 69 -38 69 9 0 21 -7 47 -15 58 -8 10 -15 30 -15 44 0 14 -7 38 -15 54 -8 16 -18 46 -21 68 -4 21 -11 41 -15 44 -22 13 -7 50 29 74 100 67 242 176 242 186 0 21 -28 24 -198 24 l-167 0 -18 63 c-10 34 -23 73 -29 87 -15 38 -46 132 -52 163 -9 39 -29 33 -54 -17z"/> <path d="M5310 6418 c-12 -40 -28 -85 -36 -100 -8 -14 -14 -32 -14 -40 0 -7 -8 -39 -17 -70 l-18 -58 -171 0 c-125 0 -175 -3 -188 -13 -17 -13 -17 -15 10 -36 59 -45 173 -127 218 -156 32 -20 46 -36 46 -51 0 -13 -4 -25 -9 -28 -5 -4 -12 -25 -16 -49 -4 -23 -14 -51 -21 -62 -8 -11 -14 -33 -14 -49 0 -16 -6 -37 -14 -45 -8 -9 -17 -35 -21 -58 -6 -39 -5 -43 14 -43 17 0 121 69 206 138 6 4 27 18 48 31 l38 23 41 -28 c22 -16 48 -33 56 -39 19 -12 20 -13 104 -75 37 -28 74 -50 82 -50 22 0 30 19 19 43 -6 12 -18 49 -28 82 -9 33 -23 75 -31 93 -8 18 -14 42 -14 53 0 11 -7 30 -15 43 -18 27 -11 38 54 82 36 24 49 33 160 113 62 45 74 64 45 75 -9 3 -92 6 -185 6 l-169 0 -5 28 c-4 15 -13 42 -21 60 -8 18 -14 43 -14 55 0 12 -6 32 -14 43 -8 11 -17 36 -21 56 -7 39 -40 98 -54 98 -4 0 -18 -33 -31 -72z"/> <path d="M8077 6457 c-10 -19 -22 -49 -27 -68 -10 -39 -27 -90 -46 -137 -8 -18 -14 -43 -14 -55 0 -44 -14 -47 -197 -47 -151 0 -174 -2 -180 -16 -4 -10 3 -23 18 -35 76 -58 159 -119 164 -119 3 0 18 -11 33 -25 16 -14 37 -32 47 -39 16 -11 17 -18 8 -42 -6 -16 -18 -56 -28 -89 -10 -33 -21 -68 -26 -77 -5 -9 -12 -35 -15 -58 -4 -22 -11 -43 -15 -46 -5 -3 -9 -14 -9 -25 0 -33 36 -22 117 39 43 32 104 75 136 97 l57 39 28 -20 c15 -11 59 -42 97 -69 39 -26 86 -61 106 -76 52 -41 69 -38 69 9 0 21 -6 46 -14 57 -7 11 -16 37 -20 59 -4 21 -11 46 -16 55 -12 22 -40 117 -40 133 0 7 17 24 38 38 100 67 242 176 242 186 0 21 -28 24 -200 24 l-169 0 -7 35 c-3 19 -10 38 -15 41 -5 3 -9 15 -9 27 0 11 -13 57 -29 101 -16 45 -32 93 -35 109 -8 36 -28 34 -49 -6z"/> <path d="M11630 6398 c-17 -51 -34 -106 -37 -123 -2 -16 -11 -44 -19 -62 -8 -17 -14 -38 -14 -47 0 -14 -22 -16 -177 -16 -201 0 -224 -6 -178 -46 49 -43 246 -184 256 -184 12 0 12 -47 0 -54 -5 -3 -12 -21 -15 -40 -4 -20 -13 -48 -21 -63 -8 -15 -15 -38 -15 -51 0 -12 -6 -33 -14 -45 -8 -12 -16 -40 -18 -62 -2 -32 0 -40 16 -43 11 -2 24 2 30 9 6 8 28 25 48 39 21 14 38 28 38 33 0 4 5 7 10 7 12 0 60 33 98 68 43 38 70 34 144 -24 31 -24 59 -44 63 -44 10 0 88 -62 98 -77 10 -16 53 -17 63 -2 3 6 2 21 -4 32 -5 12 -20 56 -32 97 -13 41 -27 79 -31 84 -5 6 -9 24 -9 42 0 17 -7 37 -15 44 -31 26 -18 39 150 155 39 26 83 60 98 74 47 43 21 51 -175 51 -127 0 -169 3 -172 13 -2 6 -9 28 -15 47 -7 19 -17 55 -22 79 -5 24 -13 49 -18 55 -4 6 -11 25 -15 41 -12 50 -39 105 -52 105 -7 0 -27 -42 -44 -92z"/> <path d="M9855 6443 c-4 -21 -13 -52 -21 -70 -8 -17 -14 -38 -14 -47 0 -8 -6 -30 -14 -48 -7 -18 -20 -53 -27 -78 l-14 -45 -180 -6 c-99 -3 -181 -6 -182 -7 -15 -11 14 -41 104 -108 59 -43 112 -81 117 -83 6 -2 19 -12 30 -23 24 -22 24 -93 0 -119 -8 -8 -14 -23 -14 -32 0 -10 -4 -25 -9 -35 -19 -36 -52 -154 -47 -168 9 -23 36 -16 85 23 25 21 48 41 49 45 2 5 8 8 14 8 5 0 37 21 70 46 34 26 70 47 84 47 14 0 51 -20 84 -47 33 -25 63 -46 66 -46 6 0 79 -55 102 -77 18 -17 51 -16 58 1 3 8 -2 28 -10 45 -9 16 -16 41 -16 54 0 13 -7 32 -15 43 -8 10 -15 30 -15 44 0 14 -6 34 -14 45 -7 11 -16 39 -18 62 -7 47 -2 53 95 118 31 21 57 42 57 47 0 4 5 8 11 8 9 0 65 39 103 71 5 5 4 15 -4 24 -10 12 -41 15 -180 15 -167 0 -168 0 -184 25 -9 13 -16 35 -16 47 0 13 -7 36 -15 52 -8 15 -15 36 -15 45 0 9 -7 29 -15 45 -8 15 -15 38 -15 50 0 30 -27 66 -50 66 -14 0 -21 -10 -25 -37z"/> <path d="M5961 5926 c-8 -9 -10 -146 -9 -487 l3 -474 795 0 795 0 3 475 c2 438 1 476 -15 488 -18 13 -335 18 -367 6 -14 -5 -16 -28 -16 -150 l0 -143 -147 -3 -148 -3 -3 -148 -3 -148 -95 3 -95 3 0 129 c0 71 -5 138 -10 148 -8 15 -27 18 -150 20 l-141 3 1 133 c1 90 -2 138 -10 148 -17 20 -371 21 -388 0z m289 -191 l0 -95 -95 0 -95 0 0 95 0 95 95 0 95 0 0 -95z m1185 0 l0 -95 -92 0 -93 0 0 95 0 95 93 0 93 0 -1 -95z m-1185 -300 l0 -95 -95 0 -95 0 0 95 0 95 95 0 95 0 0 -95z m300 0 l0 -95 -95 0 -95 0 0 95 0 95 95 0 95 0 0 -95z m600 0 l0 -95 -94 0 -95 0 -3 91 c-2 50 -1 93 1 95 2 2 46 4 98 4 l93 0 0 -95z m284 3 l-2 -93 -88 0 -89 0 -3 93 -3 92 93 0 93 0 -1 -92z m-1186 -301 l3 -97 -96 3 -95 2 0 91 c0 50 2 93 4 95 2 2 44 4 93 3 l88 -1 3 -96z m300 0 l-3 -92 -90 0 -90 0 -3 84 c-2 47 -1 89 1 95 3 7 37 10 96 8 l92 -3 -3 -92z m297 1 l0 -93 -90 1 -90 1 -5 87 c-3 48 -2 90 2 94 4 4 47 6 95 5 l88 -1 0 -94z m300 0 l0 -93 -92 -1 -93 -1 0 92 c0 50 2 94 4 96 2 2 44 3 93 2 l88 -2 0 -93z m287 2 c-2 -46 -5 -86 -7 -88 -2 -2 -41 -5 -87 -5 l-83 -2 -3 89 c-2 49 1 92 7 95 5 3 46 4 92 1 l83 -5 -2 -85z"/> </g> </svg> 