<svg width="160" height="158" xmlns="http://www.w3.org/2000/svg">

 <g>
  <title>Layer 1</title>
  <path id="svg_1" d="m30.92379,1.4c-0.8,0.9 -1.1,7.2 -0.9,20.2l0.3,18.9l14.5,0.5l14.5,0.5l0.5,14.5l0.5,14.5l18.9,0.3c13,0.2 19.3,-0.1 20.2,-0.9c1.1,-0.9 1.4,-4.4 1.4,-15l0,-13.9l12.9,0c7.1,0 13.6,-0.3 14.5,-0.6c1.4,-0.5 1.6,-3.2 1.6,-19.5c0,-17.6 -0.1,-18.9 -1.9,-19.9c-1.3,-0.6 -18.5,-1 -48.9,-1c-38.7,0 -47.2,0.2 -48.1,1.4m28.7,19.2l0.3,9.1l-5.8,0.6c-3.2,0.2 -7.4,0.4 -9.3,0.2l-3.5,-0.2l-0.3,-8.3c-0.2,-4.6 0,-9 0.2,-9.7c0.4,-1.1 2.6,-1.3 9.3,-1.1l8.8,0.3l0.3,9.1zm30,0l-0.3,9.7l-9,0.2c-4.9,0.1 -9.2,-0.2 -9.5,-0.6s-0.4,-4.8 -0.2,-9.8l0.3,-9.1l19,0l-0.3,9.6zm30,0.1l-0.3,9.8l-9.2,0.3l-9.3,0.3l0,-20.1l19.1,0l-0.3,9.7zm-29.8,29.8l0,9.5l-9.3,0c-5.2,0 -9.6,-0.2 -9.8,-0.4s-0.3,-4.5 -0.1,-9.5l0.3,-9.1l18.9,0l0,9.5z"/>
  <path id="svg_2" d="m0.92379,61.4c-0.8,0.9 -1,14.6 -0.9,48.7l0.3,47.4l159,0l0.3,-47.5c0.2,-43.8 0.1,-47.6 -1.5,-48.8c-1.8,-1.3 -33.5,-1.8 -36.7,-0.6c-1.4,0.5 -1.6,2.8 -1.6,15l0,14.3l-14.7,0.3l-14.8,0.3l-0.3,14.8l-0.3,14.8l-9.5,-0.3l-9.5,-0.3l0,-12.9c0,-7.1 -0.5,-13.8 -1,-14.8c-0.8,-1.5 -2.7,-1.8 -15,-2l-14.1,-0.3l0.1,-13.3c0.1,-9 -0.2,-13.8 -1,-14.8c-1.7,-2 -37.1,-2.1 -38.8,0m28.9,19.1l0,9.5l-19,0l0,-19l19,0l0,9.5zm118.5,0l0,9.5l-18.5,0l0,-19l18.6,0l-0.1,9.5zm-118.5,30l0,9.5l-19,0l0,-19l19,0l0,9.5zm30,0l0,9.5l-19,0l0,-19l19,0l0,9.5zm60,0l0,9.5l-18.9,0l-0.3,-9.1c-0.2,-5 -0.1,-9.3 0.1,-9.5s4.6,-0.4 9.8,-0.4l9.3,0l0,9.5zm28.4,-0.3l-0.2,9.3l-17.7,0l-0.3,-9.3l-0.3,-9.2l18.6,0l-0.1,9.2zm-118.6,30.1l0.3,9.7l-9.6,-0.3l-9.5,-0.2l0,-9.1c0,-5 0.2,-9.3 0.4,-9.5s4.4,-0.4 9.3,-0.3l8.8,0.1l0.3,9.6zm30,0l-0.3,9.2l-18,0l-0.3,-8.4c-0.2,-4.7 -0.1,-8.9 0.1,-9.5c0.3,-0.7 3.7,-1 9.6,-0.8l9.2,0.3l-0.3,9.2zm29.7,-0.1l0,9.3l-9,-0.1l-9,-0.1l-0.5,-8.7c-0.3,-4.8 -0.2,-9 0.2,-9.4s4.7,-0.6 9.5,-0.5l8.8,0.1l0,9.4zm30,0l0,9.3l-9.2,0.1l-9.3,0.1l0,-9.2c0,-5 0.2,-9.4 0.4,-9.6s4.4,-0.3 9.3,-0.2l8.8,0.2l0,9.3zm28.7,-0.2c-0.2,4.6 -0.5,8.6 -0.7,8.8s-4.1,0.5 -8.7,0.5l-8.3,0.2l-0.3,-8.9c-0.2,-4.9 0.1,-9.2 0.7,-9.5c0.5,-0.3 4.6,-0.4 9.2,-0.1l8.3,0.5l-0.2,8.5z"/>
 </g>
</svg>