<svg xmlns="http://www.w3.org/2000/svg" width="1800" height="1800" viewBox="0 0 1350 1350"><path d="M626.1 697.4c-.8.9-1.1 7.2-.9 20.2l.3 18.9 14.5.5 14.5.5.5 14.5.5 14.5 18.9.3c13 .2 19.3-.1 20.2-.9 1.1-.9 1.4-4.4 1.4-15V737h12.9c7.1 0 13.6-.3 14.5-.6 1.4-.5 1.6-3.2 1.6-19.5 0-17.6-.1-18.9-1.9-19.9-1.3-.6-18.5-1-48.9-1-38.7 0-47.2.2-48.1 1.4m28.7 19.2.3 9.1-5.8.6c-3.2.2-7.4.4-9.3.2l-3.5-.2-.3-8.3c-.2-4.6 0-9 .2-9.7.4-1.1 2.6-1.3 9.3-1.1l8.8.3zm30 0-.3 9.7-9 .2c-4.9.1-9.2-.2-9.5-.6s-.4-4.8-.2-9.8l.3-9.1h19zm30 .1-.3 9.8-9.2.3-9.3.3V707h19.1zM685 746.5v9.5h-9.3c-5.2 0-9.6-.2-9.8-.4s-.3-4.5-.1-9.5l.3-9.1H685z"/><path d="M596.1 757.4c-.8.9-1 14.6-.9 48.7l.3 47.4h159l.3-47.5c.2-43.8.1-47.6-1.5-48.8-1.8-1.3-33.5-1.8-36.7-.6-1.4.5-1.6 2.8-1.6 15v14.3l-14.7.3-14.8.3-.3 14.8-.3 14.8-9.5-.3-9.5-.3v-12.9c0-7.1-.5-13.8-1-14.8-.8-1.5-2.7-1.8-15-2l-14.1-.3.1-13.3c.1-9-.2-13.8-1-14.8-1.7-2-37.1-2.1-38.8 0m28.9 19.1v9.5h-19v-19h19zm118.5 0v9.5H725v-19h18.6zm-118.5 30v9.5h-19v-19h19zm30 0v9.5h-19v-19h19zm60 0v9.5h-18.9l-.3-9.1c-.2-5-.1-9.3.1-9.5s4.6-.4 9.8-.4h9.3zm28.4-.3-.2 9.3h-17.7l-.3-9.3-.3-9.2h18.6zm-118.6 30.1.3 9.7-9.6-.3-9.5-.2v-9.1c0-5 .2-9.3.4-9.5s4.4-.4 9.3-.3l8.8.1zm30 0-.3 9.2h-18l-.3-8.4c-.2-4.7-.1-8.9.1-9.5.3-.7 3.7-1 9.6-.8l9.2.3zm29.7-.1v9.3l-9-.1-9-.1-.5-8.7c-.3-4.8-.2-9 .2-9.4s4.7-.6 9.5-.5l8.8.1zm30 0v9.3l-9.2.1-9.3.1v-9.2c0-5 .2-9.4.4-9.6s4.4-.3 9.3-.2l8.8.2zm28.7-.2c-.2 4.6-.5 8.6-.7 8.8s-4.1.5-8.7.5l-8.3.2-.3-8.9c-.2-4.9.1-9.2.7-9.5.5-.3 4.6-.4 9.2-.1l8.3.5z"/></svg>